<svg width="144" height="144" viewBox="0 0 144 144" fill="none" xmlns="http://www.w3.org/2000/svg">
<path d="M69.8011 12.168C69.1691 12.168 68.6091 12.056 68.1211 11.832C67.6331 11.608 67.2491 11.28 66.9691 10.848C66.6971 10.408 66.5611 9.876 66.5611 9.252V8.952H67.8451V9.252C67.8451 9.844 68.0211 10.288 68.3731 10.584C68.7331 10.88 69.2091 11.028 69.8011 11.028C70.4011 11.028 70.8531 10.904 71.1571 10.656C71.4611 10.4 71.6131 10.072 71.6131 9.672C71.6131 9.408 71.5411 9.192 71.3971 9.024C71.2531 8.856 71.0491 8.724 70.7851 8.628C70.5211 8.524 70.2051 8.428 69.8371 8.34L69.3931 8.232C68.8571 8.104 68.3891 7.948 67.9891 7.764C67.5971 7.572 67.2931 7.32 67.0771 7.008C66.8611 6.696 66.7531 6.296 66.7531 5.808C66.7531 5.312 66.8731 4.888 67.1131 4.536C67.3611 4.184 67.7011 3.912 68.1331 3.72C68.5651 3.528 69.0731 3.432 69.6571 3.432C70.2411 3.432 70.7611 3.532 71.2171 3.732C71.6811 3.932 72.0451 4.228 72.3091 4.62C72.5731 5.012 72.7051 5.504 72.7051 6.096V6.528H71.4211V6.096C71.4211 5.736 71.3451 5.444 71.1931 5.22C71.0491 4.996 70.8451 4.832 70.5811 4.728C70.3171 4.624 70.0091 4.572 69.6571 4.572C69.1451 4.572 68.7451 4.68 68.4571 4.896C68.1771 5.104 68.0371 5.396 68.0371 5.772C68.0371 6.028 68.0971 6.24 68.2171 6.408C68.3451 6.568 68.5291 6.7 68.7691 6.804C69.0091 6.908 69.3091 7 69.6691 7.08L70.1131 7.188C70.6571 7.308 71.1371 7.464 71.5531 7.656C71.9691 7.84 72.2971 8.092 72.5371 8.412C72.7771 8.732 72.8971 9.144 72.8971 9.648C72.8971 10.152 72.7691 10.592 72.5131 10.968C72.2651 11.344 71.9091 11.64 71.4451 11.856C70.9811 12.064 70.4331 12.168 69.8011 12.168Z" fill="white"/>
<path d="M78.3655 12.4628C77.3524 12.3144 76.5907 11.9118 76.0805 11.255C75.5715 10.5902 75.3965 9.71563 75.5554 8.63121L75.8407 6.684C75.9996 5.59958 76.4176 4.81588 77.0948 4.33289C77.7731 3.84199 78.6189 3.67072 79.6321 3.81908C80.6295 3.96513 81.3567 4.3546 81.8137 4.9875C82.2787 5.62156 82.4411 6.41748 82.3007 7.37525L82.2903 7.44649L81.0198 7.26046L81.0355 7.1536C81.1178 6.5916 81.0307 6.1099 80.7742 5.7085C80.5256 5.30826 80.0887 5.06235 79.4633 4.97079C78.8301 4.87806 78.3069 4.99955 77.8939 5.33525C77.482 5.66303 77.2262 6.16729 77.1265 6.84802L76.8342 8.84272C76.7356 9.51554 76.836 10.072 77.1354 10.512C77.4347 10.952 77.9011 11.2184 78.5343 11.3111C79.1596 11.4027 79.6488 11.2924 80.0018 10.9802C80.3638 10.6613 80.5855 10.2248 80.6667 9.67072L80.6962 9.46887L81.9667 9.65491L81.9423 9.82113C81.802 10.7789 81.4181 11.4948 80.7908 11.969C80.1713 12.4442 79.3629 12.6088 78.3655 12.4628Z" fill="white"/>
<path d="M84.1144 12.9965L86.5244 4.94962L89.9042 5.96116C90.4024 6.11025 90.8129 6.32913 91.1356 6.61778C91.4683 6.90107 91.6899 7.23462 91.8005 7.61843C91.9187 8.00453 91.9112 8.41982 91.7781 8.86432L91.7402 8.99077C91.5887 9.49657 91.3445 9.86605 91.0074 10.0992C90.6803 10.327 90.326 10.4506 89.9444 10.47L89.8893 10.6539C90.1759 10.7564 90.3798 10.926 90.501 11.1627C90.6245 11.3917 90.6358 11.6748 90.5348 12.012L89.7361 14.679L88.483 14.3039L89.2301 11.8094C89.292 11.6025 89.2877 11.4217 89.2171 11.2669C89.1466 11.1122 88.9925 10.9993 88.7549 10.9282L86.3062 10.1953L85.356 13.3681L84.1144 12.9965ZM86.6436 9.06875L88.6439 9.66742C89.0885 9.80045 89.4666 9.79255 89.7784 9.6437C90.0925 9.48719 90.3081 9.21351 90.4252 8.82266L90.4527 8.7307C90.5698 8.33985 90.539 7.9966 90.3603 7.70095C90.1915 7.39994 89.8811 7.18176 89.4289 7.04643L87.4285 6.44777L86.6436 9.06875Z" fill="white"/>
<path d="M95.0464 16.7269C94.111 16.2909 93.4895 15.6835 93.1819 14.9046C92.8778 14.1185 92.9573 13.2288 93.4206 12.2355L94.2526 10.452C94.7159 9.45875 95.3448 8.82956 96.1394 8.56444C96.9373 8.29207 97.804 8.37389 98.7394 8.80991C99.6747 9.24593 100.295 9.85701 100.599 10.6431C100.914 11.4254 100.839 12.3132 100.376 13.3064L99.544 15.0899C99.0807 16.0832 98.4465 16.7143 97.6413 16.9833C96.8467 17.2484 95.9817 17.163 95.0464 16.7269ZM95.5384 15.6721C96.1402 15.9526 96.6855 15.9949 97.1741 15.799C97.6661 15.5959 98.0541 15.1898 98.3382 14.5808L99.2107 12.7103C99.4948 12.1013 99.5549 11.5467 99.3909 11.0466C99.2303 10.5393 98.8491 10.1453 98.2473 9.86479C97.66 9.59101 97.1167 9.55401 96.6174 9.75378C96.1216 9.9463 95.7316 10.3471 95.4475 10.9561L94.575 12.8266C94.2909 13.4356 94.2328 13.9954 94.4006 14.5062C94.5718 15.0097 94.9511 15.3983 95.5384 15.6721Z" fill="white"/>
<path d="M101.275 19.4352L105.892 12.4179L106.975 13.1299L103.005 19.1648L106.384 21.3865L105.737 22.3689L101.275 19.4352Z" fill="white"/>
<path d="M108.589 24.2326L114.174 17.9586L115.143 18.82L110.339 24.2157L113.361 26.9036L112.579 27.782L108.589 24.2326Z" fill="white"/>
<path d="M119.926 35.3774L120.906 34.7728L121.498 35.7327L126.687 32.5332L126.095 31.5733L127.076 30.9686L128.84 33.8281C129.428 34.7813 129.636 35.6588 129.463 36.4608C129.295 37.2695 128.724 37.9741 127.75 38.5745L126.412 39.3996C125.438 40 124.552 40.194 123.753 39.9814C122.966 39.7716 122.278 39.19 121.69 38.2369L119.926 35.3774ZM122.206 36.8333L122.697 37.6298C123.08 38.2494 123.52 38.6124 124.018 38.7188C124.516 38.8252 125.075 38.6874 125.694 38.3053L127.104 37.4362C127.73 37.0499 128.104 36.6125 128.226 36.124C128.348 35.6354 128.217 35.0814 127.835 34.4619L127.344 33.6653L122.206 36.8333Z" fill="white"/>
<path d="M125.982 46.0324C125.573 45.0849 125.513 44.2179 125.801 43.4316C126.096 42.6421 126.747 42.0304 127.754 41.5964L129.561 40.8172C130.567 40.3832 131.455 40.3313 132.225 40.6614C133.002 40.9884 133.595 41.6257 134.004 42.5733C134.413 43.5208 134.47 44.3893 134.174 45.1788C133.89 45.9725 133.244 46.5863 132.237 47.0203L130.43 47.7996C129.424 48.2335 128.531 48.2834 127.75 47.949C126.98 47.6188 126.391 46.98 125.982 46.0324ZM127.051 45.5715C127.314 46.1812 127.693 46.5753 128.189 46.7538C128.691 46.9291 129.251 46.8837 129.868 46.6176L131.763 45.8003C132.38 45.5342 132.794 45.1599 133.004 44.6773C133.221 44.1915 133.198 43.6438 132.935 43.0342C132.679 42.4392 132.297 42.0504 131.792 41.8677C131.293 41.6819 130.735 41.722 130.118 41.9881L128.223 42.8054C127.606 43.0715 127.19 43.4511 126.976 43.9442C126.769 44.4341 126.794 44.9766 127.051 45.5715Z" fill="white"/>
<path d="M128.147 49.6237L135.941 46.2564L136.276 47.5083L129.269 50.4286L129.319 50.6141L136.922 49.9192L137.51 52.1098L130.577 55.3084L130.627 55.4938L138.153 54.5091L138.488 55.7609L130.054 56.7405L129.467 54.5498L136.498 51.3001L136.448 51.1147L128.737 51.826L128.147 49.6237Z" fill="white"/>
<path d="M130.977 59.5192L139.321 58.5443L139.61 61.0234L132.39 64.1626L132.412 64.3533L139.898 63.4787L140.047 64.754L131.703 65.7289L131.414 63.2498L138.646 60.1092L138.623 59.9185L131.126 60.7945L130.977 59.5192Z" fill="white"/>
<path d="M131.121 81.4571C131.169 81.1814 131.301 80.9649 131.515 80.8078C131.729 80.6585 131.977 80.6089 132.261 80.6589C132.544 80.7089 132.757 80.8398 132.898 81.0515C133.046 81.2726 133.096 81.5209 133.047 81.7967C132.998 82.0724 132.867 82.2849 132.654 82.4342C132.44 82.5913 132.195 82.6456 131.919 82.597C131.635 82.547 131.419 82.4115 131.272 82.1905C131.122 81.9773 131.072 81.7329 131.121 81.4571Z" fill="white"/>
<path d="M126.479 96.9178C126.762 96.3531 127.114 95.9029 127.533 95.5674C127.952 95.2318 128.418 95.0358 128.93 94.9795C129.445 94.9338 129.981 95.051 130.539 95.331L130.807 95.4656L130.231 96.6129L129.963 96.4783C129.434 96.2127 128.958 96.1708 128.535 96.3525C128.109 96.5414 127.763 96.9003 127.497 97.4293C127.228 97.9654 127.136 98.425 127.221 98.8079C127.313 99.1944 127.538 99.4774 127.896 99.6569C128.132 99.7753 128.357 99.8079 128.572 99.7546C128.787 99.7013 128.996 99.5782 129.2 99.3854C129.412 99.1962 129.64 98.9569 129.883 98.6675L130.179 98.3192C130.534 97.8977 130.884 97.5495 131.228 97.2746C131.575 97.0105 131.937 96.8519 132.313 96.7989C132.689 96.7459 133.095 96.8288 133.531 97.0478C133.974 97.2703 134.299 97.5678 134.506 97.9402C134.709 98.3197 134.8 98.7456 134.777 99.2178C134.755 99.6899 134.613 100.187 134.35 100.709C134.088 101.231 133.765 101.65 133.382 101.968C132.995 102.293 132.567 102.485 132.098 102.546C131.629 102.606 131.13 102.503 130.601 102.237L130.215 102.043L130.792 100.896L131.178 101.09C131.499 101.251 131.795 101.314 132.063 101.279C132.328 101.251 132.566 101.142 132.777 100.953C132.989 100.764 133.174 100.512 133.332 100.197C133.561 99.7398 133.645 99.3339 133.581 98.9796C133.521 98.6361 133.322 98.38 132.986 98.2113C132.758 98.0964 132.541 98.0549 132.337 98.0868C132.137 98.1294 131.936 98.2346 131.736 98.4023C131.535 98.5701 131.318 98.7969 131.085 99.0827L130.789 99.431C130.438 99.8633 130.083 100.222 129.724 100.508C129.373 100.797 129.001 100.977 128.607 101.048C128.213 101.119 127.791 101.041 127.341 100.815C126.89 100.589 126.555 100.277 126.333 99.8796C126.109 99.4893 126.004 99.0384 126.019 98.5268C126.042 98.0189 126.195 97.4825 126.479 96.9178Z" fill="white"/>
<path d="M122.366 104.439C122.954 103.6 123.656 103.1 124.472 102.939C125.294 102.783 126.155 103.019 127.053 103.647L128.665 104.776C129.563 105.404 130.076 106.129 130.203 106.951C130.337 107.777 130.111 108.61 129.523 109.449C128.945 110.274 128.27 110.749 127.5 110.874C126.724 111.005 125.94 110.793 125.147 110.237L125.088 110.196L125.824 109.144L125.913 109.206C126.378 109.532 126.848 109.67 127.322 109.621C127.791 109.579 128.207 109.299 128.57 108.781C128.937 108.257 129.063 107.735 128.949 107.215C128.841 106.7 128.505 106.245 127.941 105.851L126.289 104.695C125.732 104.305 125.19 104.145 124.662 104.215C124.135 104.285 123.687 104.582 123.32 105.106C122.957 105.624 122.836 106.111 122.957 106.566C123.079 107.033 123.37 107.426 123.829 107.748L123.996 107.865L123.259 108.916L123.122 108.82C122.329 108.265 121.861 107.601 121.719 106.827C121.572 106.061 121.788 105.265 122.366 104.439Z" fill="white"/>
<path d="M119.309 109.335L125.419 115.099L122.998 117.664C122.641 118.042 122.261 118.311 121.858 118.47C121.456 118.64 121.058 118.688 120.665 118.615C120.267 118.547 119.899 118.354 119.562 118.036L119.466 117.945C119.082 117.583 118.861 117.199 118.804 116.793C118.747 116.399 118.796 116.027 118.95 115.677L118.81 115.545C118.59 115.756 118.347 115.862 118.081 115.864C117.82 115.871 117.562 115.754 117.306 115.513L115.281 113.603L116.179 112.651L118.073 114.438C118.23 114.586 118.394 114.664 118.564 114.67C118.734 114.676 118.904 114.589 119.074 114.409L120.828 112.55L118.419 110.278L119.309 109.335ZM121.684 113.357L120.251 114.875C119.932 115.213 119.77 115.554 119.763 115.9C119.762 116.251 119.909 116.566 120.206 116.846L120.276 116.912C120.573 117.192 120.894 117.318 121.238 117.291C121.583 117.275 121.917 117.096 122.241 116.753L123.674 115.234L121.684 113.357Z" fill="white"/>
<path d="M111.068 117.424C111.877 116.784 112.699 116.502 113.534 116.577C114.373 116.658 115.133 117.128 115.812 117.987L117.033 119.531C117.713 120.391 117.993 121.235 117.874 122.064C117.759 122.899 117.297 123.636 116.487 124.276C115.678 124.916 114.853 125.196 114.014 125.115C113.173 125.045 112.413 124.58 111.733 123.72L110.512 122.177C109.832 121.317 109.553 120.467 109.674 119.627C109.793 118.799 110.258 118.064 111.068 117.424ZM111.79 118.337C111.269 118.749 110.986 119.217 110.942 119.742C110.903 120.272 111.092 120.801 111.509 121.328L112.789 122.947C113.206 123.474 113.675 123.777 114.195 123.854C114.721 123.939 115.244 123.775 115.765 123.363C116.273 122.961 116.55 122.493 116.596 121.957C116.646 121.428 116.463 120.899 116.046 120.372L114.766 118.753C114.349 118.226 113.875 117.923 113.343 117.844C112.816 117.771 112.298 117.935 111.79 118.337Z" fill="white"/>
<path d="M105.851 121.774L110.052 129.048L108.929 129.696L105.316 123.44L101.814 125.462L101.226 124.443L105.851 121.774Z" fill="white"/>
<path d="M98.2783 126.154L101.381 133.96L100.176 134.438L97.5081 127.725L93.7497 129.218L93.3153 128.125L98.2783 126.154Z" fill="white"/>
<path d="M83.2268 131.278L83.3273 132.425L82.2036 132.523L82.7351 138.596L83.8588 138.498L83.9592 139.646L80.612 139.938C79.4962 140.036 78.6187 139.828 77.9795 139.313C77.3322 138.8 76.9587 137.973 76.859 136.833L76.7219 135.267C76.6222 134.128 76.8464 133.249 77.3946 132.631C77.9355 132.021 78.7639 131.668 79.8796 131.57L83.2268 131.278ZM80.9026 132.661L79.9702 132.743C79.245 132.806 78.7231 133.037 78.4045 133.434C78.0859 133.831 77.9583 134.392 78.0218 135.118L78.1662 136.767C78.2304 137.501 78.4535 138.031 78.8355 138.359C79.2176 138.687 79.7712 138.819 80.4964 138.756L81.4289 138.674L80.9026 132.661Z" fill="white"/>
<path d="M70.9844 131.906C72.0146 131.966 72.8165 132.301 73.39 132.911C73.963 133.53 74.2176 134.386 74.1538 135.48L74.0394 137.445C73.9756 138.539 73.6235 139.356 72.983 139.896C72.3421 140.443 71.5065 140.687 70.4763 140.627C69.446 140.567 68.6444 140.228 68.0714 139.61C67.4899 138.999 67.2311 138.146 67.2948 137.052L67.4093 135.087C67.473 133.993 67.8294 133.173 68.4783 132.625C69.1188 132.086 69.9541 131.846 70.9844 131.906ZM70.9167 133.068C70.2538 133.029 69.7315 133.191 69.3498 133.554C68.9676 133.924 68.7569 134.445 68.7178 135.116L68.5978 137.176C68.5587 137.847 68.7077 138.385 69.0448 138.789C69.3813 139.201 69.8811 139.426 70.544 139.465C71.1909 139.503 71.7094 139.337 72.0996 138.967C72.4893 138.605 72.7037 138.088 72.7428 137.417L72.8628 135.357C72.9019 134.686 72.7492 134.144 72.4046 133.732C72.0596 133.327 71.5636 133.106 70.9167 133.068Z" fill="white"/>
<path d="M66.8021 132.226L66.3134 140.702L65.0441 140.44L65.5789 132.868L65.3909 132.829L62.5996 139.936L60.3785 139.477L60.6312 131.847L60.4432 131.808L57.9458 138.975L56.6765 138.713L59.5862 130.737L61.8073 131.195L61.5563 138.936L61.7443 138.975L64.5691 131.765L66.8021 132.226Z" fill="white"/>
<path d="M56.6873 130.315L53.8135 138.208L51.4679 137.355L51.9036 129.494L51.7231 129.428L49.1449 136.509L47.9383 136.07L50.8121 128.177L53.1577 129.031L52.7179 136.903L52.8983 136.968L55.4807 129.876L56.6873 130.315Z" fill="white"/>
<path d="M37.017 120.598C37.2416 120.766 37.376 120.98 37.4201 121.242C37.4578 121.5 37.3906 121.744 37.2186 121.975C37.0466 122.206 36.8342 122.337 36.5815 122.369C36.3176 122.401 36.0733 122.334 35.8487 122.167C35.624 122 35.4929 121.788 35.4552 121.53C35.4111 121.268 35.4726 121.025 35.6399 120.8C35.8119 120.569 36.0298 120.437 36.2938 120.404C36.5513 120.367 36.7923 120.431 37.017 120.598Z" fill="white"/>
<path d="M25.2784 109.513C25.6559 110.02 25.9005 110.536 26.0123 111.061C26.1241 111.587 26.0903 112.09 25.911 112.573C25.7205 113.054 25.3749 113.48 24.8743 113.853L24.6337 114.032L23.8667 113.002L24.1074 112.823C24.5823 112.47 24.8334 112.064 24.8606 111.604C24.883 111.139 24.7174 110.669 24.3639 110.194C24.0055 109.713 23.636 109.424 23.2555 109.329C22.8686 109.238 22.5146 109.312 22.1938 109.55C21.982 109.708 21.8517 109.895 21.8029 110.111C21.7542 110.326 21.7701 110.569 21.8508 110.838C21.925 111.112 22.0368 111.422 22.186 111.77L22.3645 112.191C22.582 112.697 22.7364 113.165 22.8277 113.596C22.9078 114.025 22.8872 114.419 22.766 114.779C22.6447 115.138 22.3883 115.464 21.9968 115.755C21.5989 116.051 21.1871 116.208 20.7614 116.226C20.3309 116.237 19.9096 116.127 19.4975 115.895C19.0855 115.663 18.705 115.313 18.3562 114.845C18.0074 114.376 17.777 113.9 17.6651 113.414C17.5484 112.923 17.5684 112.454 17.7252 112.008C17.882 111.563 18.1979 111.163 18.6728 110.81L19.0193 110.552L19.7863 111.581L19.4397 111.839C19.1509 112.054 18.962 112.29 18.8731 112.545C18.7795 112.794 18.7697 113.056 18.844 113.33C18.9182 113.604 19.0605 113.882 19.2707 114.164C19.5766 114.575 19.9021 114.831 20.2474 114.933C20.5815 115.033 20.8994 114.971 21.201 114.747C21.4064 114.594 21.5406 114.419 21.6037 114.223C21.6556 114.025 21.6516 113.798 21.5917 113.544C21.5318 113.289 21.4264 112.994 21.2755 112.657L21.097 112.236C20.8683 111.729 20.7068 111.25 20.6123 110.802C20.5115 110.359 20.5177 109.945 20.6311 109.562C20.7444 109.178 21.0033 108.836 21.4076 108.535C21.8119 108.234 22.2413 108.074 22.6959 108.055C23.1456 108.029 23.5957 108.138 24.0461 108.381C24.4901 108.629 24.9009 109.007 25.2784 109.513Z" fill="white"/>
<path d="M20.3967 102.468C20.8828 103.37 21.0147 104.221 20.7925 105.022C20.5633 105.827 19.9663 106.49 19.0015 107.01L17.2692 107.944C16.3044 108.464 15.4261 108.596 14.6342 108.342C13.8353 108.091 13.1928 107.515 12.7066 106.613C12.2281 105.726 12.1062 104.91 12.3409 104.166C12.5718 103.414 13.1133 102.809 13.9654 102.349L14.0288 102.315L14.6383 103.445L14.5433 103.497C14.0433 103.766 13.7089 104.124 13.5401 104.569C13.3675 105.007 13.4313 105.505 13.7313 106.061C14.0351 106.624 14.445 106.971 14.961 107.102C15.4699 107.237 16.0272 107.141 16.6328 106.814L18.4074 105.858C19.006 105.535 19.3924 105.123 19.5665 104.62C19.7407 104.117 19.6759 103.584 19.372 103.021C19.072 102.464 18.6914 102.138 18.2302 102.041C17.7581 101.941 17.2756 102.024 16.7827 102.29L16.6031 102.386L15.9936 101.256L16.1414 101.177C16.9935 100.717 17.7971 100.598 18.5521 100.818C19.3033 101.031 19.9182 101.581 20.3967 102.468Z" fill="white"/>
<path d="M17.3906 97.54L9.4969 100.412L8.28989 97.097C8.11199 96.6084 8.04244 96.1484 8.08124 95.7172C8.10978 95.2811 8.24498 94.9042 8.48683 94.5863C8.72595 94.261 9.06352 94.019 9.49956 93.8603L9.6236 93.8152C10.1198 93.6346 10.562 93.6099 10.9503 93.7411C11.3284 93.8674 11.6391 94.0779 11.8825 94.3724L12.063 94.3067C11.974 94.0156 11.9883 93.7508 12.1057 93.5122C12.2157 93.2764 12.4361 93.0983 12.7669 92.978L15.3831 92.0261L15.8306 93.2552L13.3835 94.1455C13.1805 94.2194 13.038 94.3308 12.9561 94.4798C12.8741 94.6288 12.8755 94.8198 12.9604 95.0529L13.8349 97.4546L16.9472 96.3222L17.3906 97.54ZM12.7297 97.8567L12.0154 95.8947C11.8566 95.4587 11.6245 95.1601 11.3189 94.9989C11.0057 94.8404 10.6575 94.8309 10.2741 94.9704L10.1839 95.0032C9.80045 95.1427 9.54353 95.3724 9.41309 95.6923C9.27241 96.0074 9.2828 96.3867 9.44428 96.8302L10.1586 98.7922L12.7297 97.8567Z" fill="white"/>
<path d="M13.8585 86.5477C14.0672 87.5584 13.951 88.4197 13.5099 89.1315C13.061 89.845 12.2998 90.3125 11.2264 90.5341L9.29906 90.9319C8.22569 91.1535 7.34545 91.0248 6.65836 90.5458C5.96342 90.0684 5.51158 89.3244 5.30282 88.3137C5.09406 87.3031 5.21416 86.441 5.66312 85.7275C6.10262 85.0078 6.85905 84.5372 7.93243 84.3156L9.85979 83.9178C10.9332 83.6962 11.8181 83.828 12.5147 84.3132C13.2018 84.7922 13.6497 85.5371 13.8585 86.5477ZM12.7185 86.783C12.5842 86.1328 12.2926 85.6702 11.8437 85.3952C11.3869 85.1219 10.8295 85.0532 10.1714 85.189L8.15 85.6063C7.49188 85.7421 7.01119 86.0251 6.70794 86.4553C6.39686 86.8871 6.30847 87.4282 6.44279 88.0784C6.57387 88.713 6.86858 89.1709 7.32693 89.4521C7.77744 89.7348 8.33176 89.8083 8.98989 89.6724L11.0113 89.2552C11.6694 89.1193 12.1532 88.8316 12.4627 88.392C12.7643 87.954 12.8496 87.4176 12.7185 86.783Z" fill="white"/>
<path d="M12.3077 79.9345L3.92194 80.4227L3.84656 79.1289L11.0583 78.709L10.8231 74.6719L11.9971 74.6035L12.3077 79.9345Z" fill="white"/>
<path d="M11.7907 71.2041L3.42259 70.4723L3.53559 69.1812L10.7321 69.8106L11.0847 65.782L12.2562 65.8845L11.7907 71.2041Z" fill="white"/>
<path d="M13.9665 55.4581L12.8958 55.0329L13.3124 53.9846L7.64683 51.7346L7.23024 52.7828L6.15959 52.3576L7.40048 49.2352C7.81412 48.1943 8.3942 47.5037 9.14072 47.1632C9.89021 46.8152 10.7966 46.8524 11.8598 47.2746L13.3208 47.8549C14.384 48.2771 15.0688 48.8719 15.3751 49.6391C15.6769 50.3959 15.621 51.2948 15.2074 52.3356L13.9665 55.4581ZM13.7732 52.7602L14.1188 51.8904C14.3877 51.2138 14.4161 50.6441 14.2041 50.1812C13.9921 49.7182 13.5478 49.3524 12.8712 49.0837L11.3321 48.4725C10.6481 48.2008 10.0738 48.1621 9.60919 48.3563C9.14461 48.5506 8.77789 48.986 8.50903 49.6625L8.16335 50.5323L13.7732 52.7602Z" fill="white"/>
<path d="M18.8998 44.2379C18.3837 45.1316 17.7241 45.6977 16.9212 45.9363C16.1113 46.1709 15.2317 46.0142 14.2825 45.4664L12.578 44.4826C11.6288 43.9347 11.0567 43.2536 10.8619 42.4392C10.6602 41.6207 10.8174 40.7647 11.3335 39.871C11.8497 38.9774 12.5127 38.4133 13.3226 38.1787C14.1295 37.9332 15.0076 38.0844 15.9568 38.6322L17.6613 39.616C18.6106 40.1638 19.1841 40.8504 19.3818 41.6758C19.5766 42.4902 19.4159 43.3443 18.8998 44.2379ZM17.8916 43.6561C18.2237 43.0811 18.3135 42.5417 18.161 42.038C18.0015 41.5304 17.6308 41.1086 17.0487 40.7726L15.2611 39.7409C14.6791 39.405 14.1318 39.2969 13.6191 39.4167C13.0996 39.5325 12.6738 39.8779 12.3417 40.4529C12.0176 41.014 11.9333 41.5519 12.0888 42.0665C12.2373 42.5771 12.6026 43.0004 13.1846 43.3363L14.9722 44.3681C15.5542 44.704 16.107 44.8106 16.6306 44.6879C17.1472 44.5611 17.5676 44.2172 17.8916 43.6561Z" fill="white"/>
<path d="M20.4913 40.3581L13.1346 36.1186L13.9386 35.1022L20.4666 38.9773L20.5858 38.8267L15.487 33.1445L16.894 31.3657L23.6007 35.0149L23.7198 34.8643L18.435 29.4175L19.239 28.401L25.0622 34.5793L23.6552 36.3581L16.8489 32.6608L16.7298 32.8114L21.9058 38.5699L20.4913 40.3581Z" fill="white"/>
<path d="M26.7419 32.179L20.9765 26.07L22.7923 24.3575L29.6234 28.2737L29.7631 28.142L24.5906 22.6614L25.5247 21.7804L31.2902 27.8894L29.4744 29.6019L22.635 25.6769L22.4953 25.8087L27.676 31.298L26.7419 32.179Z" fill="white"/>
<path d="M44.2589 18.9662C44.0086 19.0919 43.7564 19.1156 43.5022 19.0373C43.2552 18.9554 43.067 18.7858 42.9377 18.5285C42.8084 18.2711 42.7865 18.0225 42.8719 17.7827C42.9609 17.5321 43.1305 17.344 43.3808 17.2184C43.631 17.0928 43.8797 17.0709 44.1267 17.1528C44.3809 17.231 44.5708 17.3953 44.6965 17.6455C44.8258 17.9028 44.846 18.1568 44.757 18.4073C44.6751 18.6543 44.5091 18.8406 44.2589 18.9662Z" fill="white"/>
</svg>
