<svg width="376" height="135" viewBox="0 0 376 135" fill="none" xmlns="http://www.w3.org/2000/svg">
<rect x="6.5" y="6.5" width="363" height="122" fill="#323232" stroke="#505050" stroke-width="3"/>
<path d="M57.772 31.6H73.228C78.2573 31.6 82.0293 32.9493 84.544 35.648C87.0587 38.3467 88.316 42.3027 88.316 47.516V80.084C88.316 85.2973 87.0587 89.2533 84.544 91.952C82.0293 94.6507 78.2573 96 73.228 96H57.772V31.6ZM73.044 86.8C74.7 86.8 75.9573 86.3093 76.816 85.328C77.736 84.3467 78.196 82.752 78.196 80.544V47.056C78.196 44.848 77.736 43.2533 76.816 42.272C75.9573 41.2907 74.7 40.8 73.044 40.8H67.892V86.8H73.044ZM95.147 31.6H122.747V40.8H105.267V57.82H119.159V67.02H105.267V86.8H122.747V96H95.147V31.6ZM141.905 96.92C136.998 96.92 133.287 95.54 130.773 92.78C128.258 89.9587 127.001 85.9413 127.001 80.728V77.048H136.569V81.464C136.569 85.6347 138.317 87.72 141.813 87.72C143.53 87.72 144.818 87.2293 145.677 86.248C146.597 85.2053 147.057 83.5493 147.057 81.28C147.057 78.5813 146.443 76.22 145.217 74.196C143.99 72.1107 141.721 69.6267 138.409 66.744C134.238 63.064 131.325 59.752 129.669 56.808C128.013 53.8027 127.185 50.4293 127.185 46.688C127.185 41.5973 128.473 37.672 131.049 34.912C133.625 32.0907 137.366 30.68 142.273 30.68C147.118 30.68 150.767 32.0907 153.221 34.912C155.735 37.672 156.993 41.6587 156.993 46.872V49.54H147.425V46.228C147.425 44.02 146.995 42.4253 146.137 41.444C145.278 40.4013 144.021 39.88 142.365 39.88C138.991 39.88 137.305 41.9347 137.305 46.044C137.305 48.3747 137.918 50.552 139.145 52.576C140.433 54.6 142.733 57.0533 146.045 59.936C150.277 63.616 153.19 66.9587 154.785 69.964C156.379 72.9693 157.177 76.496 157.177 80.544C157.177 85.8187 155.858 89.8667 153.221 92.688C150.645 95.5093 146.873 96.92 141.905 96.92ZM162.979 31.6H173.099V96H162.979V31.6ZM195.03 96.92C190.124 96.92 186.382 95.54 183.806 92.78C181.23 89.9587 179.942 85.9413 179.942 80.728V46.872C179.942 41.6587 181.23 37.672 183.806 34.912C186.382 32.0907 190.124 30.68 195.03 30.68C199.937 30.68 203.678 32.0907 206.254 34.912C208.83 37.672 210.118 41.6587 210.118 46.872V52.392H200.55V46.228C200.55 41.996 198.802 39.88 195.306 39.88C191.81 39.88 190.062 41.996 190.062 46.228V81.464C190.062 85.6347 191.81 87.72 195.306 87.72C198.802 87.72 200.55 85.6347 200.55 81.464V68.86H195.49V59.66H210.118V80.728C210.118 85.9413 208.83 89.9587 206.254 92.78C203.678 95.54 199.937 96.92 195.03 96.92ZM216.616 31.6H229.312L239.156 70.148H239.34V31.6H248.356V96H237.96L225.816 48.988H225.632V96H216.616V31.6ZM255.877 31.6H283.477V40.8H265.997V57.82H279.889V67.02H265.997V86.8H283.477V96H255.877V31.6ZM289.299 31.6H304.295C309.509 31.6 313.311 32.8267 315.703 35.28C318.095 37.672 319.291 41.3827 319.291 46.412V50.368C319.291 57.0533 317.083 61.2853 312.667 63.064V63.248C315.121 63.984 316.838 65.4867 317.819 67.756C318.862 70.0253 319.383 73.0613 319.383 76.864V88.18C319.383 90.02 319.445 91.5227 319.567 92.688C319.69 93.792 319.997 94.896 320.487 96H310.183C309.815 94.9573 309.57 93.976 309.447 93.056C309.325 92.136 309.263 90.48 309.263 88.088V76.312C309.263 73.368 308.773 71.3133 307.791 70.148C306.871 68.9827 305.246 68.4 302.915 68.4H299.419V96H289.299V31.6ZM303.099 59.2C305.123 59.2 306.626 58.6787 307.607 57.636C308.65 56.5933 309.171 54.8453 309.171 52.392V47.424C309.171 45.0933 308.742 43.4067 307.883 42.364C307.086 41.3213 305.798 40.8 304.019 40.8H299.419V59.2H303.099Z" fill="#F8F8F8"/>
<rect x="364.5" y="0.5" width="11" height="11" fill="#D9D9D9" stroke="#505050"/>
<rect x="0.5" y="0.5" width="11" height="11" fill="#D9D9D9" stroke="#505050"/>
<rect x="0.5" y="123.5" width="11" height="11" fill="#D9D9D9" stroke="#505050"/>
<rect x="364.5" y="123.5" width="11" height="11" fill="#D9D9D9" stroke="#505050"/>
</svg>
