<svg width="24" height="25" viewBox="0 0 24 25" fill="none" xmlns="http://www.w3.org/2000/svg">
<path d="M7.79922 15.5C7.64009 15.5 7.48748 15.4368 7.37495 15.3243C7.26243 15.2118 7.19922 15.0591 7.19922 14.9C7.19922 14.7409 7.26243 14.5883 7.37495 14.4758C7.48748 14.3632 7.64009 14.3 7.79922 14.3H16.1992C16.3583 14.3 16.511 14.3632 16.6235 14.4758C16.736 14.5883 16.7992 14.7409 16.7992 14.9C16.7992 15.0591 16.736 15.2118 16.6235 15.3243C16.511 15.4368 16.3583 15.5 16.1992 15.5H7.79922ZM7.79922 18.5C7.64009 18.5 7.48748 18.4368 7.37495 18.3243C7.26243 18.2118 7.19922 18.0591 7.19922 17.9C7.19922 17.7409 7.26243 17.5883 7.37495 17.4758C7.48748 17.3632 7.64009 17.3 7.79922 17.3H16.1992C16.3583 17.3 16.511 17.3632 16.6235 17.4758C16.736 17.5883 16.7992 17.7409 16.7992 17.9C16.7992 18.0591 16.736 18.2118 16.6235 18.3243C16.511 18.4368 16.3583 18.5 16.1992 18.5H7.79922Z" fill="#EAEAEA"/>
<path fill-rule="evenodd" clip-rule="evenodd" d="M13.4216 1.70001H5.39961C4.92222 1.70001 4.46438 1.88965 4.12682 2.22722C3.78925 2.56479 3.59961 3.02262 3.59961 3.50001V21.5C3.59961 21.9774 3.78925 22.4352 4.12682 22.7728C4.46438 23.1104 4.92222 23.3 5.39961 23.3H18.5996C19.077 23.3 19.5348 23.1104 19.8724 22.7728C20.21 22.4352 20.3996 21.9774 20.3996 21.5V9.14241C20.3995 8.69178 20.2304 8.25758 19.9256 7.92561L14.7488 2.28321C14.5801 2.09931 14.375 1.95249 14.1465 1.85209C13.918 1.75169 13.6712 1.6999 13.4216 1.70001ZM4.79961 3.50001C4.79961 3.34088 4.86282 3.18827 4.97535 3.07575C5.08787 2.96323 5.24048 2.90001 5.39961 2.90001H13.4216C13.5049 2.89992 13.5872 2.91716 13.6635 2.95063C13.7397 2.98409 13.8081 3.03306 13.8644 3.09441L19.0412 8.73681C19.1429 8.84741 19.1995 8.99215 19.1996 9.14241V21.5C19.1996 21.6591 19.1364 21.8118 19.0239 21.9243C18.9114 22.0368 18.7587 22.1 18.5996 22.1H5.39961C5.24048 22.1 5.08787 22.0368 4.97535 21.9243C4.86282 21.8118 4.79961 21.6591 4.79961 21.5V3.50001Z" fill="#EAEAEA"/>
<path d="M13.7988 3.02002V8.66002H19.4388" stroke="#EAEAEA" stroke-linecap="round" stroke-linejoin="round"/>
<path d="M9.76074 7.85961C9.9321 7.86486 10.1028 7.83564 10.2626 7.77368C10.4225 7.71173 10.5683 7.6183 10.6913 7.49894C10.8144 7.37958 10.9123 7.23672 10.9791 7.07884C11.0459 6.92095 11.0803 6.75125 11.0803 6.57981C11.0803 6.40836 11.0459 6.23867 10.9791 6.08078C10.9123 5.92289 10.8144 5.78003 10.6913 5.66068C10.5683 5.54132 10.4225 5.44789 10.2626 5.38593C10.1028 5.32398 9.9321 5.29476 9.76074 5.30001C9.4281 5.31019 9.11249 5.4495 8.8808 5.68839C8.64911 5.92729 8.51953 6.24701 8.51953 6.57981C8.51953 6.9126 8.64911 7.23233 8.8808 7.47122C9.11249 7.71012 9.4281 7.84942 9.76074 7.85961Z" fill="#EAEAEA"/>
<path fill-rule="evenodd" clip-rule="evenodd" d="M12.3184 10.6328C12.3184 9.272 11.1724 8.2868 9.75882 8.2868C8.34522 8.2868 7.19922 9.2708 7.19922 10.6328V11.2736C7.19954 11.3867 7.24469 11.495 7.32477 11.5749C7.40485 11.6548 7.51333 11.6996 7.62642 11.6996H11.8924C12.0053 11.6993 12.1135 11.6543 12.1933 11.5745C12.2731 11.4947 12.3181 11.3865 12.3184 11.2736V10.6328Z" fill="#EAEAEA"/>
</svg>
