<svg width="90" height="90" viewBox="0 0 90 90" fill="none" xmlns="http://www.w3.org/2000/svg">
<circle cx="45" cy="45" r="45" fill="#8B8B8B" fill-opacity="0.6"/>
<path d="M46.4845 72.9638C46.2814 72.9667 46.0801 72.9198 45.8934 72.8262C45.7067 72.7326 45.5389 72.5943 45.4006 72.4203L31.4645 56.1159C30.8452 55.3913 30.8452 54.2681 31.4645 53.5435C32.0839 52.8188 33.044 52.8188 33.6633 53.5435L46.5155 68.5797L59.3367 53.5797C59.956 52.8551 60.9161 52.8551 61.5355 53.5797C62.1548 54.3043 62.1548 55.4275 61.5355 56.1522L47.5994 72.4565C47.2897 72.8188 46.8871 73 46.5155 73L46.4845 72.9638Z" fill="#F8F8F8"/>
<path d="M46.5879 18.9966L46.5879 70.4567" stroke="#F8F8F8" stroke-width="3" stroke-linecap="round"/>
</svg>
